<?xml version="1.0" encoding="UTF-8"?>
<!DOCTYPE svg
  PUBLIC '-//W3C//DTD SVG 1.1//EN'
  'http://www.w3.org/Graphics/SVG/1.1/DTD/svg11.dtd'>
<svg height="23.000mm" version="1.1" width="17.000mm" xmlns="http://www.w3.org/2000/svg">
    <!--Autogenerated with pyBarcode 0.7-->
    <rect height="100%" style="fill:white" width="100%"/>
    <rect height="15.000mm" style="fill:black;" width="0.200mm" x="2.540mm" y="1.000mm"/>
    <rect height="15.000mm" style="fill:white;" width="0.200mm" x="2.740mm" y="1.000mm"/>
    <rect height="15.000mm" style="fill:white;" width="0.200mm" x="2.940mm" y="1.000mm"/>
    <rect height="15.000mm" style="fill:white;" width="0.200mm" x="3.140mm" y="1.000mm"/>
    <rect height="15.000mm" style="fill:black;" width="0.200mm" x="3.340mm" y="1.000mm"/>
    <rect height="15.000mm" style="fill:white;" width="0.200mm" x="3.540mm" y="1.000mm"/>
    <rect height="15.000mm" style="fill:black;" width="0.200mm" x="3.740mm" y="1.000mm"/>
    <rect height="15.000mm" style="fill:black;" width="0.200mm" x="3.940mm" y="1.000mm"/>
    <rect height="15.000mm" style="fill:black;" width="0.200mm" x="4.140mm" y="1.000mm"/>
    <rect height="15.000mm" style="fill:white;" width="0.200mm" x="4.340mm" y="1.000mm"/>
    <rect height="15.000mm" style="fill:black;" width="0.200mm" x="4.540mm" y="1.000mm"/>
    <rect height="15.000mm" style="fill:black;" width="0.200mm" x="4.740mm" y="1.000mm"/>
    <rect height="15.000mm" style="fill:black;" width="0.200mm" x="4.940mm" y="1.000mm"/>
    <rect height="15.000mm" style="fill:white;" width="0.200mm" x="5.140mm" y="1.000mm"/>
    <rect height="15.000mm" style="fill:black;" width="0.200mm" x="5.340mm" y="1.000mm"/>
    <rect height="15.000mm" style="fill:white;" width="0.200mm" x="5.540mm" y="1.000mm"/>
    <rect height="15.000mm" style="fill:black;" width="0.200mm" x="5.740mm" y="1.000mm"/>
    <rect height="15.000mm" style="fill:white;" width="0.200mm" x="5.940mm" y="1.000mm"/>
    <rect height="15.000mm" style="fill:black;" width="0.200mm" x="6.140mm" y="1.000mm"/>
    <rect height="15.000mm" style="fill:black;" width="0.200mm" x="6.340mm" y="1.000mm"/>
    <rect height="15.000mm" style="fill:black;" width="0.200mm" x="6.540mm" y="1.000mm"/>
    <rect height="15.000mm" style="fill:white;" width="0.200mm" x="6.740mm" y="1.000mm"/>
    <rect height="15.000mm" style="fill:black;" width="0.200mm" x="6.940mm" y="1.000mm"/>
    <rect height="15.000mm" style="fill:black;" width="0.200mm" x="7.140mm" y="1.000mm"/>
    <rect height="15.000mm" style="fill:black;" width="0.200mm" x="7.340mm" y="1.000mm"/>
    <rect height="15.000mm" style="fill:white;" width="0.200mm" x="7.540mm" y="1.000mm"/>
    <rect height="15.000mm" style="fill:white;" width="0.200mm" x="7.740mm" y="1.000mm"/>
    <rect height="15.000mm" style="fill:white;" width="0.200mm" x="7.940mm" y="1.000mm"/>
    <rect height="15.000mm" style="fill:black;" width="0.200mm" x="8.140mm" y="1.000mm"/>
    <rect height="15.000mm" style="fill:white;" width="0.200mm" x="8.340mm" y="1.000mm"/>
    <rect height="15.000mm" style="fill:black;" width="0.200mm" x="8.540mm" y="1.000mm"/>
    <rect height="15.000mm" style="fill:white;" width="0.200mm" x="8.740mm" y="1.000mm"/>
    <rect height="15.000mm" style="fill:black;" width="0.200mm" x="8.940mm" y="1.000mm"/>
    <rect height="15.000mm" style="fill:white;" width="0.200mm" x="9.140mm" y="1.000mm"/>
    <rect height="15.000mm" style="fill:black;" width="0.200mm" x="9.340mm" y="1.000mm"/>
    <rect height="15.000mm" style="fill:black;" width="0.200mm" x="9.540mm" y="1.000mm"/>
    <rect height="15.000mm" style="fill:black;" width="0.200mm" x="9.740mm" y="1.000mm"/>
    <rect height="15.000mm" style="fill:white;" width="0.200mm" x="9.940mm" y="1.000mm"/>
    <rect height="15.000mm" style="fill:black;" width="0.200mm" x="10.140mm" y="1.000mm"/>
    <rect height="15.000mm" style="fill:black;" width="0.200mm" x="10.340mm" y="1.000mm"/>
    <rect height="15.000mm" style="fill:black;" width="0.200mm" x="10.540mm" y="1.000mm"/>
    <rect height="15.000mm" style="fill:white;" width="0.200mm" x="10.740mm" y="1.000mm"/>
    <rect height="15.000mm" style="fill:white;" width="0.200mm" x="10.940mm" y="1.000mm"/>
    <rect height="15.000mm" style="fill:white;" width="0.200mm" x="11.140mm" y="1.000mm"/>
    <rect height="15.000mm" style="fill:black;" width="0.200mm" x="11.340mm" y="1.000mm"/>
    <rect height="15.000mm" style="fill:white;" width="0.200mm" x="11.540mm" y="1.000mm"/>
    <rect height="15.000mm" style="fill:black;" width="0.200mm" x="11.740mm" y="1.000mm"/>
    <rect height="15.000mm" style="fill:white;" width="0.200mm" x="11.940mm" y="1.000mm"/>
    <rect height="15.000mm" style="fill:black;" width="0.200mm" x="12.140mm" y="1.000mm"/>
    <rect height="15.000mm" style="fill:white;" width="0.200mm" x="12.340mm" y="1.000mm"/>
    <rect height="15.000mm" style="fill:white;" width="0.200mm" x="12.540mm" y="1.000mm"/>
    <rect height="15.000mm" style="fill:white;" width="0.200mm" x="12.740mm" y="1.000mm"/>
    <rect height="15.000mm" style="fill:black;" width="0.200mm" x="12.940mm" y="1.000mm"/>
    <rect height="15.000mm" style="fill:white;" width="0.200mm" x="13.140mm" y="1.000mm"/>
    <rect height="15.000mm" style="fill:black;" width="0.200mm" x="13.340mm" y="1.000mm"/>
    <rect height="15.000mm" style="fill:black;" width="0.200mm" x="13.540mm" y="1.000mm"/>
    <rect height="15.000mm" style="fill:black;" width="0.200mm" x="13.740mm" y="1.000mm"/>
    <rect height="15.000mm" style="fill:white;" width="0.200mm" x="13.940mm" y="1.000mm"/>
    <rect height="15.000mm" style="fill:black;" width="0.200mm" x="14.140mm" y="1.000mm"/>
    <rect height="15.000mm" style="fill:black;" width="0.200mm" x="14.340mm" y="1.000mm"/>
    <rect height="15.000mm" style="fill:black;" width="0.200mm" x="14.540mm" y="1.000mm"/>
    <rect height="15.000mm" style="fill:white;" width="0.200mm" x="14.740mm" y="1.000mm"/>
    <rect height="15.000mm" style="fill:black;" width="0.200mm" x="14.940mm" y="1.000mm"/>
    <rect height="15.000mm" style="fill:white;" width="2.540mm" x="15.140mm" y="1.000mm"/>
    <text style="fill:black;font-size:10pt;text-anchor:middle;" x="7.570mm" y="21.000mm">FF</text>
</svg>
